<svg xmlns="http://www.w3.org/2000/svg" width="64" height="64" viewBox="0 0 64 64" fill="none">
  <defs>
    <filter id="glow" x="-40%" y="-40%" width="180%" height="180%">
      <feGaussianBlur stdDeviation="2.2" result="blur"/>
      <feMerge>
        <feMergeNode in="blur"/>
        <feMergeNode in="SourceGraphic"/>
      </feMerge>
    </filter>
  </defs>
  <g stroke="#00FFD1" stroke-width="1.6" opacity=".72" stroke-linecap="square" stroke-linejoin="miter">
    <path d="M9 19V10H19"/>
    <path d="M45 10H55V20"/>
    <path d="M55 45V54H45"/>
    <path d="M19 54H9V44"/>
    <path d="M32 5V11M32 53V59M5 32H11M53 32H59"/>
  </g>
  <g filter="url(#glow)" stroke="#00FFD1" stroke-width="2.2" fill="none" stroke-linecap="round" stroke-linejoin="round">
    <path d="M16 35L32 20L48 35"/>
    <path d="M21 33V47H43V33"/>
    <path d="M26 47V38H38V47"/>
    <polygon points="32,11 51,22 51,43 32,54 13,43 13,22"/>
    <path d="M16 24L9 19M48 24L55 19M16 43L9 48M48 43L55 48"/>
  </g>
  <g opacity=".85">
    <circle cx="9" cy="19" r="2.2" fill="#58E7FF"/>
    <circle cx="55" cy="19" r="2.2" fill="#58E7FF"/>
    <circle cx="9" cy="48" r="2.2" fill="#36FF8F"/>
    <circle cx="55" cy="48" r="2.2" fill="#36FF8F"/>
    <path d="M24 28H40" stroke="#58E7FF" stroke-width="1.3" stroke-linecap="round"/>
  </g>
</svg>
