<svg xmlns="http://www.w3.org/2000/svg" width="64" height="64" viewBox="0 0 64 64" fill="none">
  <defs>
    <filter id="glow" x="-40%" y="-40%" width="180%" height="180%">
      <feGaussianBlur stdDeviation="2.2" result="blur"/>
      <feMerge>
        <feMergeNode in="blur"/>
        <feMergeNode in="SourceGraphic"/>
      </feMerge>
    </filter>
  </defs>
  <g stroke="#00FFD1" stroke-width="1.6" opacity=".72" stroke-linecap="square" stroke-linejoin="miter">
    <path d="M9 19V10H19"/>
    <path d="M45 10H55V20"/>
    <path d="M55 45V54H45"/>
    <path d="M19 54H9V44"/>
    <path d="M32 5V11M32 53V59M5 32H11M53 32H59"/>
  </g>
  <g filter="url(#glow)" stroke="#00FFD1" stroke-width="2.2" fill="none" stroke-linecap="round" stroke-linejoin="round">
    <polygon points="32,9 45,24 39,48 32,55 25,48 19,24"/>
    <path d="M32 17V47M23 27H41M25 46L32 36L39 46"/>
    <circle cx="32" cy="27" r="5"/>
  </g>
  <g stroke="#58E7FF" stroke-width="1.45" opacity=".85" fill="none" stroke-linecap="round">
    <path d="M15 33C19 19 45 19 49 33"/>
    <path d="M19 43C25 51 39 51 45 43"/>
    <path d="M32 5V10M32 55V60"/>
  </g>
  <circle cx="32" cy="27" r="2.1" fill="#36FF8F"/>
</svg>
